<?xml version="1.0" encoding="UTF-8"?>
<!-- Generated by Pixelmator Pro 3.4.3 -->
<svg width="170" height="170" viewBox="0 0 170 170" xmlns="http://www.w3.org/2000/svg">
    <g id="Group">
        <path id="Path" fill="#000000" stroke="none" d="M 22.506569 159.139374 C 41.250324 162.499359 92.662735 162.175278 113.641533 161.718796 C 123.873558 161.500519 130.587097 159.873535 131.80452 148.669281 L 132.995026 118.608154 C 132.995026 112.906799 134.251724 94.314079 126.969604 94.268364 C 121.440292 102.046593 121.896606 144.290649 120.514267 149.211105 C 113.146126 151.294586 28.016283 153.979828 22.943451 152.220428 C 21.124609 146.929169 21.686769 110.518532 20.972391 101.417564 C 20.019964 89.108833 17.460352 61.27681 21.666878 50.337021 L 43.209496 48.25354 C 49.863277 42.902672 47.455711 32.300339 49.664837 24.475891 C 54.327744 23.153061 113.337738 19.574905 117.06955 20.381714 C 119.000824 25.950836 117.115845 34.297821 125.046051 35.250076 C 130.337311 30.719406 129.424515 16.115204 125.694237 11.756882 C 121.944138 7.358459 105.125198 9.825623 99.363228 10.652344 C 90.976639 11.842865 78.469109 11.128555 69.60688 12.127274 C 60.37368 13.145844 50.644703 13.582382 41.582684 15.335052 C 33.043865 16.962112 29.273949 23.463776 23.335039 28.318527 C 14.359706 35.620453 14.968244 38.180084 12.388821 48.603104 C 7.858148 67.003136 11.132138 116.654625 11.304118 139.109863 C 11.363645 148.693741 11.694352 157.186508 22.508381 159.137085 Z M 39.584217 25.396652 C 40.946716 30.687912 40.166252 35.840332 38.671474 40.437027 C 34.815548 41.521759 29.372065 41.111679 25.952642 39.134064 Z"/>
        <path id="path1" fill="#000000" stroke="none" d="M 96.174446 69.927895 C 83.581253 67.804779 75.73748 67.99662 63.011368 67.99662 C 55.795448 67.99662 36.568619 65.569252 34.140568 74.240303 C 38.889492 81.998566 76.880394 77.163795 86.914322 79.20089 C 86.180161 81.91272 70.398987 97.468849 67.10553 97.905701 C 64.22184 98.276093 62.383026 96.735001 59.519138 96.238945 C 52.845551 95.068253 37.673431 94.744156 34.141415 100.531555 C 36.330727 108.395638 52.304401 104.414063 59.129707 106.338715 C 59.129707 113.488617 50.09494 123.614479 54.380779 132.603699 C 59.103294 134.144775 80.063278 129.00563 83.747681 125.367958 C 90.447685 118.820007 97.72982 112.404465 104.184647 105.948608 C 108.933578 101.199692 120.137833 91.384369 125.449585 87.37587 C 132.923553 81.786942 138.452881 73.592186 145.90686 68.003937 C 173.321503 47.434914 150.437531 20.951523 136.415604 30.489334 C 124.41114 38.631271 102.023277 66.959236 96.17495 69.929115 Z M 61.70929 125.710449 L 63.898613 114.850098 L 74.170258 122.238037 C 71.617249 124.956474 65.221344 126.365219 61.70929 125.710449 Z M 107.960831 92.508446 C 105.163155 95.154083 80.783226 115.287102 78.937637 116.240387 C 75.147743 115.175499 70.398811 109.758621 67.95163 106.55069 L 95.04287 80.649757 C 100.267921 75.404724 117.516762 55.424423 122.220474 53.340088 C 125.276207 54.682747 132.366501 64.021828 133.64299 66.905518 C 132.128372 71.833076 112.901253 87.831818 107.960495 92.508446 Z M 141.401596 34.814255 C 141.553711 34.834091 154.556931 43.763161 142.268021 57.440521 C 139.946487 55.747314 138.888214 53.128098 137.022995 51.044785 C 135.118134 48.921677 132.08223 47.380524 129.760666 45.363243 C 132.234283 41.904037 137.413101 35.924988 141.401443 34.813736 Z"/>
    </g>
</svg>
