<?xml version="1.0" encoding="UTF-8"?>
<svg width="128pt" height="128pt" version="1.1" viewBox="0 0 128 128" xmlns="http://www.w3.org/2000/svg">
 <path d="m105.8 69.723c-0.33984-0.94141-1.0039-1.6797-1.9023-2.1211-1.6211-0.78125-10.105-4.6211-16.789-2.3008-2.7383 0.92188-4.8633 2.7812-6.125 5.3789-2.0781 4.2617-0.39844 9.6797 1.4219 15.539 1.3633 4.4609 3.082 10.02 1.6016 11.918-2.1836 2.6797-5.4219 3.6992-7.9609 4.0781-3.8438-6.9414-9.3047-12.137-12.688-14.238-8.3828-5.1797-10.527-7.6016-12.824-10.68-5.3203-7.0977-5.7852-12.02-5.2227-14.918 0.42188-2.1992 1.6016-4 3.3633-5.0781 20.453-12.598 17.047-32.598 16.547-35.078l2.9023-12.438c0.10156-0.39844-0.0625-0.80078-0.39844-1.0391-0.33984-0.23828-0.78125-0.23828-1.1211-0.019532l-11.723 7.7617c-3.1016-2.1016-6.9258-3.1797-11.348-3.1797-3.9805 0-7.3242 0.87891-8.7227 1.2969l-6.8438-8.2383c-0.26172-0.32031-0.70312-0.44141-1.082-0.32031-0.37891 0.14062-0.66016 0.48047-0.67969 0.89844l-0.89844 13.02c-1.4805 2.0781-9.7227 15.457 7.3828 35.438l0.36328 0.42188c2.6406 3.0391 4.0781 4.6992-5.5039 16.68l-0.21875 0.28125c-4.1406 5.1602-9.8008 12.238 0.54297 26.879 2.3789 3.3594 4.5234 7.2188 2.2812 13.82-5.5859 2.6172-8.3242 4.7188-8.125 6.2383 0.058594 0.55859 0.42188 1.2617 1.7969 1.5 2.7383 0.51953 12.348 0.78125 28.555 0.78125 13.445 0 26.73-0.17969 26.855-0.17969 0.51953-0.019531 0.94141-0.39844 0.98047-0.89844 0.45703-4.1016-0.058594-8.0391-1.1836-11.68 4.4648-1.0586 8.207-3.2617 10.824-6.4609 3.9219-5.0586 1.7617-12.059-0.39844-19.02-1.0586-3.4805-2.5234-8.2188-1.7383-9.7969 2.2188-4.5391 12.805 0.29688 12.926 0.35938 1.8594 0.89844 4.0781 0.12109 4.9805-1.7188 0.43359-0.92578 0.49609-1.9453 0.17188-2.8867zm-66.633-42.5c-0.35937 0.039063-0.76172 0.078125-1.2188 0.078125-1.3008 0-2.4609-0.23828-3.4219-0.71875-1.6406-0.80078-2.7617-2.2617-3.3828-3.2812 0.35938-0.039062 0.78125-0.078125 1.2383-0.078125 1.3008 0 2.4414 0.23828 3.4219 0.71875 1.6289 0.80469 2.7461 2.2656 3.3633 3.2812zm-6.1602 9.6602c1.043-0.67969 4.6641-2.8398 9.5859-2.8398 3.3633 0 6.6602 0.98047 9.8828 2.8984 1.2422 5.5586-0.92188 9.6406-2.2617 11.539l-0.92188-1.9414c-0.125-0.26172-0.36328-0.46094-0.66016-0.53906-0.078125-0.019531-0.16016-0.019531-0.23828-0.019531-0.22266 0-0.42188 0.058593-0.60156 0.19922-1.7227 1.3008-3.4805 1.9609-5.2227 1.9609-3.1836 0-5.3828-2.2617-5.4023-2.2812-0.21875-0.21875-0.54297-0.33984-0.86328-0.30078-0.32031 0.039062-0.60156 0.23828-0.73828 0.51953l-1.1602 2.1016c-2.2773-4.2539-1.6367-9.7969-1.3984-11.297zm20.488-8.3203c-0.62109 0.17969-1.3008 0.28125-2.0234 0.28125-1.2227 0-2.3398-0.26172-3.1406-0.5 0.83984-0.98047 2.3398-2.3789 4.2852-2.9219 1.6836-0.48047 3.8984-0.16016 5.1602 0.21875-0.83594 0.98438-2.3359 2.3828-4.2812 2.9219z"/>
</svg>
